<?xml version="1.0" standalone="no"?>
<!DOCTYPE svg PUBLIC "-//W3C//DTD SVG 20010904//EN"
 "http://www.w3.org/TR/2001/REC-SVG-20010904/DTD/svg10.dtd">
<svg version="1.0" xmlns="http://www.w3.org/2000/svg"
 width="690.000000pt" height="362.000000pt" viewBox="0 0 690.000000 362.000000"
 preserveAspectRatio="xMidYMid meet">

<g transform="translate(0.000000,362.000000) scale(0.100000,-0.100000)"
fill="#000000" stroke="none">
<path d="M5971 3324 c0 -11 3 -14 6 -6 3 7 2 16 -1 19 -3 4 -6 -2 -5 -13z"/>
<path d="M5992 2630 c0 -14 2 -19 5 -12 2 6 2 18 0 25 -3 6 -5 1 -5 -13z"/>
<path d="M1973 2150 c0 -25 2 -35 4 -22 2 12 2 32 0 45 -2 12 -4 2 -4 -23z"/>
<path d="M952 1970 c0 -14 2 -19 5 -12 2 6 2 18 0 25 -3 6 -5 1 -5 -13z"/>
<path d="M925 1628 c-2 -7 -5 -24 -7 -38 l-3 -25 -271 -3 c-251 -2 -272 -4
-288 -21 -16 -17 -18 -69 -25 -538 -4 -285 -5 -525 -3 -534 7 -32 43 -36 232
-28 844 36 840 36 847 10 6 -22 43 -41 69 -36 11 3 170 9 354 15 605 18 619
19 637 47 14 21 14 25 -1 42 -14 16 -16 67 -16 489 l0 472 -237 2 -237 3 -7
25 c-6 22 -7 23 -8 4 -1 -12 -8 -25 -17 -28 -9 -3 -110 -6 -225 -6 -194 0
-209 1 -209 18 0 10 -7 28 -16 40 -15 22 -18 22 -274 22 -276 0 -290 2 -290
51 0 26 18 24 23 -3 5 -21 5 -21 4 1 -2 27 -24 40 -32 19z m46 -114 c19 -23
-1 -49 -37 -49 -20 0 -30 6 -32 18 -8 40 43 63 69 31z m1017 -99 c-1 -10 -11
-23 -21 -29 -15 -9 -21 -7 -33 9 -18 25 -14 38 17 46 29 7 42 -2 37 -26z
m-1198 -312 c0 -302 4 -323 70 -355 76 -39 160 -12 198 62 21 42 22 56 22 265
0 121 3 237 6 258 l7 37 84 0 84 0 -3 -272 c-3 -230 -7 -280 -21 -318 -54
-138 -157 -200 -332 -200 -105 0 -166 21 -220 75 -78 77 -90 152 -80 480 l7
235 89 0 89 0 0 -267z m1325 170 c79 -42 115 -105 115 -200 0 -110 -67 -203
-169 -238 -25 -9 -79 -18 -118 -22 l-73 -6 -2 -83 c-1 -46 -2 -101 -2 -121 -1
-37 -2 -38 -46 -45 -25 -3 -62 -7 -82 -7 l-38 -1 0 376 0 376 188 -4 c169 -3
191 -5 227 -25z"/>
<path d="M1870 1054 l0 -117 61 7 c77 9 106 27 121 77 26 90 -25 149 -131 149
l-51 0 0 -116z"/>
<path d="M2973 1620 c-7 -11 -13 -28 -12 -37 1 -12 4 -10 9 7 l8 25 1 -27 c1
-16 -3 -28 -9 -28 -13 0 -13 -37 1 -46 21 -13 29 12 21 69 -6 51 -8 55 -19 37z"/>
<path d="M6016 1574 c-4 -9 -4 -19 -1 -22 3 -3 5 0 5 6 0 7 4 12 9 12 6 0 6
-12 0 -30 l-11 -30 -243 0 c-241 0 -244 0 -259 -22 -9 -12 -16 -34 -16 -48 l0
-25 -232 3 c-128 1 -239 5 -245 7 -7 2 -13 15 -13 28 0 14 -7 30 -15 37 -13
11 -15 7 -15 -29 l0 -41 -162 -1 c-90 -1 -194 -4 -233 -8 -61 -5 -71 -9 -82
-31 -8 -15 -13 -19 -13 -9 0 8 4 19 10 25 6 6 4 22 -8 44 l-17 35 -100 2 c-55
0 -91 -1 -80 -4 46 -10 47 -12 31 -35 -9 -12 -16 -32 -16 -44 0 -12 -5 -24
-11 -26 -6 -2 -13 -33 -16 -68 -3 -36 -9 -67 -14 -70 -10 -7 -16 -350 -6 -350
5 0 5 -5 1 -11 -9 -16 -27 17 -18 34 5 8 4 9 -4 2 -10 -9 28 -142 86 -307 l10
-27 -61 -7 c-48 -6 -56 -9 -39 -15 18 -7 22 -16 22 -53 l0 -45 -62 -4 c-38 -2
-16 -4 53 -5 64 -1 144 1 177 4 l62 7 3 431 2 431 2 -465 c2 -426 4 -466 19
-477 28 -21 955 -3 980 18 8 7 14 30 14 55 l0 44 20 -20 c19 -19 33 -20 524
-20 440 0 505 2 516 15 10 13 12 117 6 513 -7 432 -10 499 -23 515 -15 15 -40
17 -260 17 l-243 0 0 24 c0 49 -21 73 -34 40z m-1019 -126 c-3 -7 -5 -2 -5 12
0 14 2 19 5 13 2 -7 2 -19 0 -25z m1066 10 c6 -18 -11 -48 -27 -48 -20 0 -39
27 -32 45 7 18 52 20 59 3z m-1035 -97 c5 -15 -16 -41 -35 -41 -16 0 -27 24
-20 43 6 17 49 15 55 -2z m479 -548 c-1 -103 -2 -21 -2 182 0 204 1 288 2 188
2 -100 2 -266 0 -370z m733 478 c0 -21 3 -53 6 -70 l7 -31 -132 0 -131 0 0
-80 0 -79 118 -3 117 -3 3 -67 3 -68 -116 0 -115 0 0 -85 0 -85 135 0 135 0 0
-70 0 -70 -219 0 -219 0 -4 368 c-2 202 -2 370 0 375 2 4 95 7 208 7 l204 0 0
-39z m-962 -123 l3 -68 -99 0 -100 0 2 -302 1 -303 -77 -3 -78 -4 0 125 c0 68
-3 206 -7 307 l-6 183 -94 -5 -93 -5 0 74 0 73 273 -2 272 -3 3 -67z"/>
<path d="M1944 1535 c-4 -14 -4 -29 0 -32 3 -4 6 3 6 15 0 12 5 22 10 22 6 0
10 5 10 10 0 21 -20 9 -26 -15z"/>
<path d="M3395 1538 c3 -7 -11 -24 -30 -38 -19 -14 -33 -29 -31 -35 1 -5 -8
-27 -21 -47 -12 -21 -23 -48 -23 -61 0 -13 -5 -28 -12 -35 -7 -7 -13 -22 -13
-35 0 -14 -5 -21 -15 -19 -12 3 -11 0 2 -15 27 -29 47 -86 58 -163 18 -128
-15 -257 -90 -345 -19 -22 -28 -35 -21 -28 28 24 41 4 35 -51 -3 -28 -2 -68 4
-89 6 -22 7 -37 1 -37 -5 0 -9 -4 -9 -10 0 -6 48 -10 123 -10 l124 0 -3 452
c-1 295 2 462 9 478 24 58 -1 100 -60 100 -22 0 -31 -4 -28 -12z"/>
<path d="M3975 1539 c-11 -16 -1 -19 13 -3 7 8 8 14 3 14 -5 0 -13 -5 -16 -11z"/>
<path d="M3995 1513 c-4 -13 -12 -23 -17 -23 -5 0 -8 -10 -6 -22 2 -15 11 -24
27 -26 19 -3 22 -8 19 -32 -2 -16 -1 -27 4 -24 11 7 10 52 -2 59 -6 4 -8 10
-6 13 2 4 1 23 -4 42 -7 32 -9 33 -15 13z"/>
</g>
</svg>
